<mxfile host="app.diagrams.net" modified="2022-10-20T12:11:02.512Z" agent="5.0 (Windows NT 10.0; Win64; x64) AppleWebKit/537.36 (KHTML, like Gecko) Chrome/106.0.0.0 Safari/537.36" etag="gexWOi6pPaUdFVgOT06f" version="20.4.0" type="github">
  <diagram id="6lxwd2tFvA-u8Np8MpL-" name="Page-1">
    <mxGraphModel dx="1038" dy="483" grid="1" gridSize="10" guides="1" tooltips="1" connect="1" arrows="1" fold="1" page="1" pageScale="1" pageWidth="827" pageHeight="1169" math="0" shadow="0">
      <root>
        <mxCell id="0" />
        <mxCell id="1" parent="0" />
        <mxCell id="Bz5Knsb119byF3IW7ttu-165" value="3,3" style="text;html=1;align=center;verticalAlign=middle;resizable=0;points=[];autosize=1;strokeColor=none;fillColor=none;" vertex="1" parent="1">
          <mxGeometry x="770" y="242" width="40" height="30" as="geometry" />
        </mxCell>
        <mxCell id="Bz5Knsb119byF3IW7ttu-88" value="2,4" style="text;html=1;align=center;verticalAlign=middle;resizable=0;points=[];autosize=1;strokeColor=none;fillColor=none;" vertex="1" parent="1">
          <mxGeometry x="711" y="179" width="40" height="30" as="geometry" />
        </mxCell>
        <mxCell id="Bz5Knsb119byF3IW7ttu-166" value="4,3" style="text;html=1;align=center;verticalAlign=middle;resizable=0;points=[];autosize=1;strokeColor=none;fillColor=none;" vertex="1" parent="1">
          <mxGeometry x="771" y="112" width="40" height="30" as="geometry" />
        </mxCell>
        <mxCell id="Bz5Knsb119byF3IW7ttu-93" value="3,4" style="text;html=1;align=center;verticalAlign=middle;resizable=0;points=[];autosize=1;strokeColor=none;fillColor=none;" vertex="1" parent="1">
          <mxGeometry x="712" y="244" width="40" height="30" as="geometry" />
        </mxCell>
        <mxCell id="Bz5Knsb119byF3IW7ttu-98" value="4,4" style="text;html=1;align=center;verticalAlign=middle;resizable=0;points=[];autosize=1;strokeColor=none;fillColor=none;" vertex="1" parent="1">
          <mxGeometry x="713" y="114" width="40" height="30" as="geometry" />
        </mxCell>
        <mxCell id="Bz5Knsb119byF3IW7ttu-170" value="4,1" style="text;html=1;align=center;verticalAlign=middle;resizable=0;points=[];autosize=1;strokeColor=none;fillColor=none;" vertex="1" parent="1">
          <mxGeometry x="520" y="112" width="40" height="30" as="geometry" />
        </mxCell>
        <mxCell id="Bz5Knsb119byF3IW7ttu-83" value="1,4" style="text;html=1;align=center;verticalAlign=middle;resizable=0;points=[];autosize=1;strokeColor=none;fillColor=none;" vertex="1" parent="1">
          <mxGeometry x="711" y="49" width="40" height="30" as="geometry" />
        </mxCell>
        <mxCell id="Bz5Knsb119byF3IW7ttu-163" value="1,3" style="text;html=1;align=center;verticalAlign=middle;resizable=0;points=[];autosize=1;strokeColor=none;fillColor=none;" vertex="1" parent="1">
          <mxGeometry x="769" y="47" width="40" height="30" as="geometry" />
        </mxCell>
        <mxCell id="Bz5Knsb119byF3IW7ttu-56" value="1,1" style="text;html=1;align=center;verticalAlign=middle;resizable=0;points=[];autosize=1;strokeColor=none;fillColor=none;" vertex="1" parent="1">
          <mxGeometry x="87" y="47" width="40" height="30" as="geometry" />
        </mxCell>
        <mxCell id="Bz5Knsb119byF3IW7ttu-57" value="1,2" style="text;html=1;align=center;verticalAlign=middle;resizable=0;points=[];autosize=1;strokeColor=none;fillColor=none;" vertex="1" parent="1">
          <mxGeometry x="157" y="47" width="40" height="30" as="geometry" />
        </mxCell>
        <mxCell id="Bz5Knsb119byF3IW7ttu-58" value="1,3" style="text;html=1;align=center;verticalAlign=middle;resizable=0;points=[];autosize=1;strokeColor=none;fillColor=none;" vertex="1" parent="1">
          <mxGeometry x="220" y="47" width="40" height="30" as="geometry" />
        </mxCell>
        <mxCell id="Bz5Knsb119byF3IW7ttu-59" value="1,4" style="text;html=1;align=center;verticalAlign=middle;resizable=0;points=[];autosize=1;strokeColor=none;fillColor=none;" vertex="1" parent="1">
          <mxGeometry x="280" y="47" width="40" height="30" as="geometry" />
        </mxCell>
        <mxCell id="Bz5Knsb119byF3IW7ttu-60" value="1,5" style="text;html=1;align=center;verticalAlign=middle;resizable=0;points=[];autosize=1;strokeColor=none;fillColor=none;" vertex="1" parent="1">
          <mxGeometry x="338" y="47" width="40" height="30" as="geometry" />
        </mxCell>
        <mxCell id="Bz5Knsb119byF3IW7ttu-61" value="2,1" style="text;html=1;align=center;verticalAlign=middle;resizable=0;points=[];autosize=1;strokeColor=none;fillColor=none;" vertex="1" parent="1">
          <mxGeometry x="86" y="113" width="40" height="30" as="geometry" />
        </mxCell>
        <mxCell id="Bz5Knsb119byF3IW7ttu-62" value="2,2" style="text;html=1;align=center;verticalAlign=middle;resizable=0;points=[];autosize=1;strokeColor=none;fillColor=none;" vertex="1" parent="1">
          <mxGeometry x="156" y="113" width="40" height="30" as="geometry" />
        </mxCell>
        <mxCell id="Bz5Knsb119byF3IW7ttu-63" value="2,3" style="text;html=1;align=center;verticalAlign=middle;resizable=0;points=[];autosize=1;strokeColor=none;fillColor=none;" vertex="1" parent="1">
          <mxGeometry x="219" y="113" width="40" height="30" as="geometry" />
        </mxCell>
        <mxCell id="Bz5Knsb119byF3IW7ttu-64" value="2,4" style="text;html=1;align=center;verticalAlign=middle;resizable=0;points=[];autosize=1;strokeColor=none;fillColor=none;" vertex="1" parent="1">
          <mxGeometry x="279" y="113" width="40" height="30" as="geometry" />
        </mxCell>
        <mxCell id="Bz5Knsb119byF3IW7ttu-65" value="2,5" style="text;html=1;align=center;verticalAlign=middle;resizable=0;points=[];autosize=1;strokeColor=none;fillColor=none;" vertex="1" parent="1">
          <mxGeometry x="337" y="113" width="40" height="30" as="geometry" />
        </mxCell>
        <mxCell id="Bz5Knsb119byF3IW7ttu-66" value="3,1" style="text;html=1;align=center;verticalAlign=middle;resizable=0;points=[];autosize=1;strokeColor=none;fillColor=none;" vertex="1" parent="1">
          <mxGeometry x="87" y="178" width="40" height="30" as="geometry" />
        </mxCell>
        <mxCell id="Bz5Knsb119byF3IW7ttu-67" value="3,2" style="text;html=1;align=center;verticalAlign=middle;resizable=0;points=[];autosize=1;strokeColor=none;fillColor=none;" vertex="1" parent="1">
          <mxGeometry x="157" y="178" width="40" height="30" as="geometry" />
        </mxCell>
        <mxCell id="Bz5Knsb119byF3IW7ttu-68" value="3,3" style="text;html=1;align=center;verticalAlign=middle;resizable=0;points=[];autosize=1;strokeColor=none;fillColor=none;" vertex="1" parent="1">
          <mxGeometry x="220" y="178" width="40" height="30" as="geometry" />
        </mxCell>
        <mxCell id="Bz5Knsb119byF3IW7ttu-69" value="3,4" style="text;html=1;align=center;verticalAlign=middle;resizable=0;points=[];autosize=1;strokeColor=none;fillColor=none;" vertex="1" parent="1">
          <mxGeometry x="280" y="178" width="40" height="30" as="geometry" />
        </mxCell>
        <mxCell id="Bz5Knsb119byF3IW7ttu-70" value="3,5" style="text;html=1;align=center;verticalAlign=middle;resizable=0;points=[];autosize=1;strokeColor=none;fillColor=none;" vertex="1" parent="1">
          <mxGeometry x="338" y="178" width="40" height="30" as="geometry" />
        </mxCell>
        <mxCell id="Bz5Knsb119byF3IW7ttu-71" value="4,1" style="text;html=1;align=center;verticalAlign=middle;resizable=0;points=[];autosize=1;strokeColor=none;fillColor=none;" vertex="1" parent="1">
          <mxGeometry x="88" y="242" width="40" height="30" as="geometry" />
        </mxCell>
        <mxCell id="Bz5Knsb119byF3IW7ttu-72" value="4,2" style="text;html=1;align=center;verticalAlign=middle;resizable=0;points=[];autosize=1;strokeColor=none;fillColor=none;" vertex="1" parent="1">
          <mxGeometry x="158" y="242" width="40" height="30" as="geometry" />
        </mxCell>
        <mxCell id="Bz5Knsb119byF3IW7ttu-73" value="4,3" style="text;html=1;align=center;verticalAlign=middle;resizable=0;points=[];autosize=1;strokeColor=none;fillColor=none;" vertex="1" parent="1">
          <mxGeometry x="221" y="242" width="40" height="30" as="geometry" />
        </mxCell>
        <mxCell id="Bz5Knsb119byF3IW7ttu-74" value="4,4" style="text;html=1;align=center;verticalAlign=middle;resizable=0;points=[];autosize=1;strokeColor=none;fillColor=none;" vertex="1" parent="1">
          <mxGeometry x="281" y="242" width="40" height="30" as="geometry" />
        </mxCell>
        <mxCell id="Bz5Knsb119byF3IW7ttu-75" value="4,5" style="text;html=1;align=center;verticalAlign=middle;resizable=0;points=[];autosize=1;strokeColor=none;fillColor=none;" vertex="1" parent="1">
          <mxGeometry x="339" y="242" width="40" height="30" as="geometry" />
        </mxCell>
        <mxCell id="Bz5Knsb119byF3IW7ttu-42" value="" style="group" vertex="1" connectable="0" parent="1">
          <mxGeometry x="110" y="70" width="210" height="210" as="geometry" />
        </mxCell>
        <mxCell id="Bz5Knsb119byF3IW7ttu-156" style="edgeStyle=orthogonalEdgeStyle;curved=1;rounded=0;orthogonalLoop=1;jettySize=auto;html=1;exitX=0.5;exitY=0;exitDx=0;exitDy=0;entryX=0.5;entryY=1;entryDx=0;entryDy=0;endArrow=none;endFill=0;" edge="1" parent="Bz5Knsb119byF3IW7ttu-42" source="Bz5Knsb119byF3IW7ttu-1" target="Bz5Knsb119byF3IW7ttu-6">
          <mxGeometry relative="1" as="geometry">
            <Array as="points">
              <mxPoint x="8" y="-20" />
              <mxPoint x="36" y="-20" />
              <mxPoint x="36" y="228" />
              <mxPoint x="8" y="228" />
            </Array>
          </mxGeometry>
        </mxCell>
        <mxCell id="Bz5Knsb119byF3IW7ttu-1" value="" style="ellipse;whiteSpace=wrap;html=1;strokeColor=#000000;fillColor=#000000;" vertex="1" parent="Bz5Knsb119byF3IW7ttu-42">
          <mxGeometry width="15.909090909090908" height="16.153846153846153" as="geometry" />
        </mxCell>
        <mxCell id="Bz5Knsb119byF3IW7ttu-2" value="" style="ellipse;whiteSpace=wrap;html=1;strokeColor=#000000;fillColor=#000000;" vertex="1" parent="Bz5Knsb119byF3IW7ttu-42">
          <mxGeometry y="64.61538461538461" width="15.909090909090908" height="16.153846153846153" as="geometry" />
        </mxCell>
        <mxCell id="Bz5Knsb119byF3IW7ttu-4" style="edgeStyle=orthogonalEdgeStyle;rounded=0;orthogonalLoop=1;jettySize=auto;html=1;exitX=0.5;exitY=1;exitDx=0;exitDy=0;entryX=0.5;entryY=0;entryDx=0;entryDy=0;endArrow=none;endFill=0;" edge="1" parent="Bz5Knsb119byF3IW7ttu-42" source="Bz5Knsb119byF3IW7ttu-1" target="Bz5Knsb119byF3IW7ttu-2">
          <mxGeometry relative="1" as="geometry" />
        </mxCell>
        <mxCell id="Bz5Knsb119byF3IW7ttu-3" value="" style="ellipse;whiteSpace=wrap;html=1;strokeColor=#000000;fillColor=#000000;" vertex="1" parent="Bz5Knsb119byF3IW7ttu-42">
          <mxGeometry y="129.23076923076923" width="15.909090909090908" height="16.153846153846153" as="geometry" />
        </mxCell>
        <mxCell id="Bz5Knsb119byF3IW7ttu-5" style="edgeStyle=orthogonalEdgeStyle;rounded=0;orthogonalLoop=1;jettySize=auto;html=1;exitX=0.5;exitY=1;exitDx=0;exitDy=0;entryX=0.5;entryY=0;entryDx=0;entryDy=0;endArrow=none;endFill=0;" edge="1" parent="Bz5Knsb119byF3IW7ttu-42" source="Bz5Knsb119byF3IW7ttu-2" target="Bz5Knsb119byF3IW7ttu-3">
          <mxGeometry relative="1" as="geometry" />
        </mxCell>
        <mxCell id="Bz5Knsb119byF3IW7ttu-6" value="" style="ellipse;whiteSpace=wrap;html=1;strokeColor=#000000;fillColor=#000000;" vertex="1" parent="Bz5Knsb119byF3IW7ttu-42">
          <mxGeometry y="192.23076923076923" width="15.909090909090908" height="16.153846153846153" as="geometry" />
        </mxCell>
        <mxCell id="Bz5Knsb119byF3IW7ttu-7" style="rounded=0;orthogonalLoop=1;jettySize=auto;html=1;exitX=0.5;exitY=1;exitDx=0;exitDy=0;endArrow=none;endFill=0;entryX=0.5;entryY=0;entryDx=0;entryDy=0;" edge="1" parent="Bz5Knsb119byF3IW7ttu-42" source="Bz5Knsb119byF3IW7ttu-3" target="Bz5Knsb119byF3IW7ttu-6">
          <mxGeometry relative="1" as="geometry">
            <mxPoint x="20" y="180" as="targetPoint" />
          </mxGeometry>
        </mxCell>
        <mxCell id="Bz5Knsb119byF3IW7ttu-9" value="" style="ellipse;whiteSpace=wrap;html=1;strokeColor=#000000;fillColor=#000000;" vertex="1" parent="Bz5Knsb119byF3IW7ttu-42">
          <mxGeometry x="66.81818181818181" width="15.909090909090908" height="16.153846153846153" as="geometry" />
        </mxCell>
        <mxCell id="Bz5Knsb119byF3IW7ttu-16" style="edgeStyle=orthogonalEdgeStyle;rounded=0;orthogonalLoop=1;jettySize=auto;html=1;exitX=1;exitY=0.5;exitDx=0;exitDy=0;entryX=0;entryY=0.5;entryDx=0;entryDy=0;endArrow=none;endFill=0;" edge="1" parent="Bz5Knsb119byF3IW7ttu-42" source="Bz5Knsb119byF3IW7ttu-1" target="Bz5Knsb119byF3IW7ttu-9">
          <mxGeometry relative="1" as="geometry" />
        </mxCell>
        <mxCell id="Bz5Knsb119byF3IW7ttu-11" value="" style="ellipse;whiteSpace=wrap;html=1;strokeColor=#000000;fillColor=#000000;" vertex="1" parent="Bz5Knsb119byF3IW7ttu-42">
          <mxGeometry x="66.81818181818181" y="64.61538461538461" width="15.909090909090908" height="16.153846153846153" as="geometry" />
        </mxCell>
        <mxCell id="Bz5Knsb119byF3IW7ttu-17" style="edgeStyle=orthogonalEdgeStyle;rounded=0;orthogonalLoop=1;jettySize=auto;html=1;exitX=1;exitY=0.5;exitDx=0;exitDy=0;entryX=0;entryY=0.5;entryDx=0;entryDy=0;endArrow=none;endFill=0;" edge="1" parent="Bz5Knsb119byF3IW7ttu-42" source="Bz5Knsb119byF3IW7ttu-2" target="Bz5Knsb119byF3IW7ttu-11">
          <mxGeometry relative="1" as="geometry" />
        </mxCell>
        <mxCell id="Bz5Knsb119byF3IW7ttu-8" style="edgeStyle=orthogonalEdgeStyle;rounded=0;orthogonalLoop=1;jettySize=auto;html=1;exitX=0.5;exitY=1;exitDx=0;exitDy=0;entryX=0.5;entryY=0;entryDx=0;entryDy=0;endArrow=none;endFill=0;" edge="1" parent="Bz5Knsb119byF3IW7ttu-42" source="Bz5Knsb119byF3IW7ttu-9" target="Bz5Knsb119byF3IW7ttu-11">
          <mxGeometry relative="1" as="geometry" />
        </mxCell>
        <mxCell id="Bz5Knsb119byF3IW7ttu-13" value="" style="ellipse;whiteSpace=wrap;html=1;strokeColor=#000000;fillColor=#000000;" vertex="1" parent="Bz5Knsb119byF3IW7ttu-42">
          <mxGeometry x="66.81818181818181" y="129.23076923076923" width="15.909090909090908" height="16.153846153846153" as="geometry" />
        </mxCell>
        <mxCell id="Bz5Knsb119byF3IW7ttu-18" style="edgeStyle=orthogonalEdgeStyle;rounded=0;orthogonalLoop=1;jettySize=auto;html=1;exitX=1;exitY=0.5;exitDx=0;exitDy=0;entryX=0;entryY=0.5;entryDx=0;entryDy=0;endArrow=none;endFill=0;" edge="1" parent="Bz5Knsb119byF3IW7ttu-42" source="Bz5Knsb119byF3IW7ttu-3" target="Bz5Knsb119byF3IW7ttu-13">
          <mxGeometry relative="1" as="geometry" />
        </mxCell>
        <mxCell id="Bz5Knsb119byF3IW7ttu-10" style="edgeStyle=orthogonalEdgeStyle;rounded=0;orthogonalLoop=1;jettySize=auto;html=1;exitX=0.5;exitY=1;exitDx=0;exitDy=0;entryX=0.5;entryY=0;entryDx=0;entryDy=0;endArrow=none;endFill=0;" edge="1" parent="Bz5Knsb119byF3IW7ttu-42" source="Bz5Knsb119byF3IW7ttu-11" target="Bz5Knsb119byF3IW7ttu-13">
          <mxGeometry relative="1" as="geometry" />
        </mxCell>
        <mxCell id="Bz5Knsb119byF3IW7ttu-14" value="" style="ellipse;whiteSpace=wrap;html=1;strokeColor=#000000;fillColor=#000000;" vertex="1" parent="Bz5Knsb119byF3IW7ttu-42">
          <mxGeometry x="66.81818181818181" y="192.23076923076923" width="15.909090909090908" height="16.153846153846153" as="geometry" />
        </mxCell>
        <mxCell id="Bz5Knsb119byF3IW7ttu-19" style="rounded=0;orthogonalLoop=1;jettySize=auto;html=1;exitX=1;exitY=0.5;exitDx=0;exitDy=0;endArrow=none;endFill=0;entryX=0;entryY=0.5;entryDx=0;entryDy=0;" edge="1" parent="Bz5Knsb119byF3IW7ttu-42" source="Bz5Knsb119byF3IW7ttu-6" target="Bz5Knsb119byF3IW7ttu-14">
          <mxGeometry relative="1" as="geometry">
            <mxPoint x="50" y="170" as="targetPoint" />
          </mxGeometry>
        </mxCell>
        <mxCell id="Bz5Knsb119byF3IW7ttu-12" style="rounded=0;orthogonalLoop=1;jettySize=auto;html=1;entryX=0.5;entryY=0;entryDx=0;entryDy=0;endArrow=none;endFill=0;exitX=0.5;exitY=1;exitDx=0;exitDy=0;" edge="1" parent="Bz5Knsb119byF3IW7ttu-42" source="Bz5Knsb119byF3IW7ttu-13" target="Bz5Knsb119byF3IW7ttu-14">
          <mxGeometry relative="1" as="geometry">
            <mxPoint x="60" y="160" as="sourcePoint" />
          </mxGeometry>
        </mxCell>
        <mxCell id="Bz5Knsb119byF3IW7ttu-22" value="" style="ellipse;whiteSpace=wrap;html=1;strokeColor=#000000;fillColor=#000000;" vertex="1" parent="Bz5Knsb119byF3IW7ttu-42">
          <mxGeometry x="130.27272727272725" y="-0.3846153846153846" width="15.909090909090908" height="16.153846153846153" as="geometry" />
        </mxCell>
        <mxCell id="Bz5Knsb119byF3IW7ttu-38" style="edgeStyle=orthogonalEdgeStyle;rounded=0;orthogonalLoop=1;jettySize=auto;html=1;exitX=1;exitY=0.5;exitDx=0;exitDy=0;entryX=0;entryY=0.5;entryDx=0;entryDy=0;endArrow=none;endFill=0;" edge="1" parent="Bz5Knsb119byF3IW7ttu-42" source="Bz5Knsb119byF3IW7ttu-9" target="Bz5Knsb119byF3IW7ttu-22">
          <mxGeometry relative="1" as="geometry" />
        </mxCell>
        <mxCell id="Bz5Knsb119byF3IW7ttu-25" value="" style="ellipse;whiteSpace=wrap;html=1;strokeColor=#000000;fillColor=#000000;" vertex="1" parent="Bz5Knsb119byF3IW7ttu-42">
          <mxGeometry x="130.27272727272725" y="64.23076923076923" width="15.909090909090908" height="16.153846153846153" as="geometry" />
        </mxCell>
        <mxCell id="Bz5Knsb119byF3IW7ttu-39" style="edgeStyle=orthogonalEdgeStyle;rounded=0;orthogonalLoop=1;jettySize=auto;html=1;exitX=1;exitY=0.5;exitDx=0;exitDy=0;entryX=0;entryY=0.5;entryDx=0;entryDy=0;endArrow=none;endFill=0;" edge="1" parent="Bz5Knsb119byF3IW7ttu-42" source="Bz5Knsb119byF3IW7ttu-11" target="Bz5Knsb119byF3IW7ttu-25">
          <mxGeometry relative="1" as="geometry" />
        </mxCell>
        <mxCell id="Bz5Knsb119byF3IW7ttu-20" style="edgeStyle=orthogonalEdgeStyle;rounded=0;orthogonalLoop=1;jettySize=auto;html=1;exitX=0.5;exitY=1;exitDx=0;exitDy=0;entryX=0.5;entryY=0;entryDx=0;entryDy=0;endArrow=none;endFill=0;" edge="1" parent="Bz5Knsb119byF3IW7ttu-42" source="Bz5Knsb119byF3IW7ttu-22" target="Bz5Knsb119byF3IW7ttu-25">
          <mxGeometry relative="1" as="geometry" />
        </mxCell>
        <mxCell id="Bz5Knsb119byF3IW7ttu-28" value="" style="ellipse;whiteSpace=wrap;html=1;strokeColor=#000000;fillColor=#000000;" vertex="1" parent="Bz5Knsb119byF3IW7ttu-42">
          <mxGeometry x="130.27272727272725" y="128.84615384615384" width="15.909090909090908" height="16.153846153846153" as="geometry" />
        </mxCell>
        <mxCell id="Bz5Knsb119byF3IW7ttu-40" style="edgeStyle=orthogonalEdgeStyle;rounded=0;orthogonalLoop=1;jettySize=auto;html=1;exitX=1;exitY=0.5;exitDx=0;exitDy=0;entryX=0;entryY=0.5;entryDx=0;entryDy=0;endArrow=none;endFill=0;" edge="1" parent="Bz5Knsb119byF3IW7ttu-42" source="Bz5Knsb119byF3IW7ttu-13" target="Bz5Knsb119byF3IW7ttu-28">
          <mxGeometry relative="1" as="geometry" />
        </mxCell>
        <mxCell id="Bz5Knsb119byF3IW7ttu-23" style="edgeStyle=orthogonalEdgeStyle;rounded=0;orthogonalLoop=1;jettySize=auto;html=1;exitX=0.5;exitY=1;exitDx=0;exitDy=0;entryX=0.5;entryY=0;entryDx=0;entryDy=0;endArrow=none;endFill=0;" edge="1" parent="Bz5Knsb119byF3IW7ttu-42" source="Bz5Knsb119byF3IW7ttu-25" target="Bz5Knsb119byF3IW7ttu-28">
          <mxGeometry relative="1" as="geometry" />
        </mxCell>
        <mxCell id="Bz5Knsb119byF3IW7ttu-30" value="" style="ellipse;whiteSpace=wrap;html=1;strokeColor=#000000;fillColor=#000000;" vertex="1" parent="Bz5Knsb119byF3IW7ttu-42">
          <mxGeometry x="130.27272727272725" y="191.84615384615384" width="15.909090909090908" height="16.153846153846153" as="geometry" />
        </mxCell>
        <mxCell id="Bz5Knsb119byF3IW7ttu-41" style="rounded=0;orthogonalLoop=1;jettySize=auto;html=1;exitX=1;exitY=0.5;exitDx=0;exitDy=0;entryX=0;entryY=0.5;entryDx=0;entryDy=0;endArrow=none;endFill=0;" edge="1" parent="Bz5Knsb119byF3IW7ttu-42" source="Bz5Knsb119byF3IW7ttu-14" target="Bz5Knsb119byF3IW7ttu-30">
          <mxGeometry relative="1" as="geometry" />
        </mxCell>
        <mxCell id="Bz5Knsb119byF3IW7ttu-26" style="rounded=0;orthogonalLoop=1;jettySize=auto;html=1;exitX=0.5;exitY=1;exitDx=0;exitDy=0;entryX=0.5;entryY=0;entryDx=0;entryDy=0;endArrow=none;endFill=0;" edge="1" parent="Bz5Knsb119byF3IW7ttu-42" source="Bz5Knsb119byF3IW7ttu-28" target="Bz5Knsb119byF3IW7ttu-30">
          <mxGeometry relative="1" as="geometry" />
        </mxCell>
        <mxCell id="Bz5Knsb119byF3IW7ttu-32" value="" style="ellipse;whiteSpace=wrap;html=1;strokeColor=#000000;fillColor=#000000;" vertex="1" parent="Bz5Knsb119byF3IW7ttu-42">
          <mxGeometry x="194.0909090909091" y="-0.3846153846153846" width="15.909090909090908" height="16.153846153846153" as="geometry" />
        </mxCell>
        <mxCell id="Bz5Knsb119byF3IW7ttu-21" style="edgeStyle=orthogonalEdgeStyle;rounded=0;orthogonalLoop=1;jettySize=auto;html=1;exitX=1;exitY=0.5;exitDx=0;exitDy=0;entryX=0;entryY=0.5;entryDx=0;entryDy=0;endArrow=none;endFill=0;" edge="1" parent="Bz5Knsb119byF3IW7ttu-42" source="Bz5Knsb119byF3IW7ttu-22" target="Bz5Knsb119byF3IW7ttu-32">
          <mxGeometry relative="1" as="geometry" />
        </mxCell>
        <mxCell id="Bz5Knsb119byF3IW7ttu-34" value="" style="ellipse;whiteSpace=wrap;html=1;strokeColor=#000000;fillColor=#000000;" vertex="1" parent="Bz5Knsb119byF3IW7ttu-42">
          <mxGeometry x="194.0909090909091" y="64.23076923076923" width="15.909090909090908" height="16.153846153846153" as="geometry" />
        </mxCell>
        <mxCell id="Bz5Knsb119byF3IW7ttu-24" style="edgeStyle=orthogonalEdgeStyle;rounded=0;orthogonalLoop=1;jettySize=auto;html=1;exitX=1;exitY=0.5;exitDx=0;exitDy=0;entryX=0;entryY=0.5;entryDx=0;entryDy=0;endArrow=none;endFill=0;" edge="1" parent="Bz5Knsb119byF3IW7ttu-42" source="Bz5Knsb119byF3IW7ttu-25" target="Bz5Knsb119byF3IW7ttu-34">
          <mxGeometry relative="1" as="geometry" />
        </mxCell>
        <mxCell id="Bz5Knsb119byF3IW7ttu-31" style="edgeStyle=orthogonalEdgeStyle;rounded=0;orthogonalLoop=1;jettySize=auto;html=1;exitX=0.5;exitY=1;exitDx=0;exitDy=0;entryX=0.5;entryY=0;entryDx=0;entryDy=0;endArrow=none;endFill=0;" edge="1" parent="Bz5Knsb119byF3IW7ttu-42" source="Bz5Knsb119byF3IW7ttu-32" target="Bz5Knsb119byF3IW7ttu-34">
          <mxGeometry relative="1" as="geometry" />
        </mxCell>
        <mxCell id="Bz5Knsb119byF3IW7ttu-36" value="" style="ellipse;whiteSpace=wrap;html=1;strokeColor=#000000;fillColor=#000000;" vertex="1" parent="Bz5Knsb119byF3IW7ttu-42">
          <mxGeometry x="194.0909090909091" y="128.84615384615384" width="15.909090909090908" height="16.153846153846153" as="geometry" />
        </mxCell>
        <mxCell id="Bz5Knsb119byF3IW7ttu-27" style="edgeStyle=orthogonalEdgeStyle;rounded=0;orthogonalLoop=1;jettySize=auto;html=1;exitX=1;exitY=0.5;exitDx=0;exitDy=0;entryX=0;entryY=0.5;entryDx=0;entryDy=0;endArrow=none;endFill=0;" edge="1" parent="Bz5Knsb119byF3IW7ttu-42" source="Bz5Knsb119byF3IW7ttu-28" target="Bz5Knsb119byF3IW7ttu-36">
          <mxGeometry relative="1" as="geometry" />
        </mxCell>
        <mxCell id="Bz5Knsb119byF3IW7ttu-33" style="edgeStyle=orthogonalEdgeStyle;rounded=0;orthogonalLoop=1;jettySize=auto;html=1;exitX=0.5;exitY=1;exitDx=0;exitDy=0;entryX=0.5;entryY=0;entryDx=0;entryDy=0;endArrow=none;endFill=0;" edge="1" parent="Bz5Knsb119byF3IW7ttu-42" source="Bz5Knsb119byF3IW7ttu-34" target="Bz5Knsb119byF3IW7ttu-36">
          <mxGeometry relative="1" as="geometry" />
        </mxCell>
        <mxCell id="Bz5Knsb119byF3IW7ttu-37" value="" style="ellipse;whiteSpace=wrap;html=1;strokeColor=#000000;fillColor=#000000;" vertex="1" parent="Bz5Knsb119byF3IW7ttu-42">
          <mxGeometry x="194.0909090909091" y="192.84615384615384" width="15.909090909090908" height="16.153846153846153" as="geometry" />
        </mxCell>
        <mxCell id="Bz5Knsb119byF3IW7ttu-29" style="rounded=0;orthogonalLoop=1;jettySize=auto;html=1;exitX=1;exitY=0.5;exitDx=0;exitDy=0;entryX=0;entryY=0.5;entryDx=0;entryDy=0;endArrow=none;endFill=0;" edge="1" parent="Bz5Knsb119byF3IW7ttu-42" source="Bz5Knsb119byF3IW7ttu-30" target="Bz5Knsb119byF3IW7ttu-37">
          <mxGeometry relative="1" as="geometry" />
        </mxCell>
        <mxCell id="Bz5Knsb119byF3IW7ttu-35" style="rounded=0;orthogonalLoop=1;jettySize=auto;html=1;exitX=0.5;exitY=1;exitDx=0;exitDy=0;entryX=0.5;entryY=0;entryDx=0;entryDy=0;endArrow=none;endFill=0;" edge="1" parent="Bz5Knsb119byF3IW7ttu-42" source="Bz5Knsb119byF3IW7ttu-36" target="Bz5Knsb119byF3IW7ttu-37">
          <mxGeometry relative="1" as="geometry" />
        </mxCell>
        <mxCell id="Bz5Knsb119byF3IW7ttu-45" value="" style="ellipse;whiteSpace=wrap;html=1;strokeColor=#000000;fillColor=#000000;" vertex="1" parent="1">
          <mxGeometry x="362.0909090909091" y="69.61538461538461" width="15.909090909090908" height="16.153846153846153" as="geometry" />
        </mxCell>
        <mxCell id="Bz5Knsb119byF3IW7ttu-46" value="" style="ellipse;whiteSpace=wrap;html=1;strokeColor=#000000;fillColor=#000000;" vertex="1" parent="1">
          <mxGeometry x="362.0909090909091" y="134.23076923076923" width="15.909090909090908" height="16.153846153846153" as="geometry" />
        </mxCell>
        <mxCell id="Bz5Knsb119byF3IW7ttu-47" style="edgeStyle=orthogonalEdgeStyle;rounded=0;orthogonalLoop=1;jettySize=auto;html=1;exitX=0.5;exitY=1;exitDx=0;exitDy=0;entryX=0.5;entryY=0;entryDx=0;entryDy=0;endArrow=none;endFill=0;" edge="1" parent="1" source="Bz5Knsb119byF3IW7ttu-45" target="Bz5Knsb119byF3IW7ttu-46">
          <mxGeometry relative="1" as="geometry" />
        </mxCell>
        <mxCell id="Bz5Knsb119byF3IW7ttu-48" value="" style="ellipse;whiteSpace=wrap;html=1;strokeColor=#000000;fillColor=#000000;" vertex="1" parent="1">
          <mxGeometry x="362.0909090909091" y="198.84615384615384" width="15.909090909090908" height="16.153846153846153" as="geometry" />
        </mxCell>
        <mxCell id="Bz5Knsb119byF3IW7ttu-49" style="edgeStyle=orthogonalEdgeStyle;rounded=0;orthogonalLoop=1;jettySize=auto;html=1;exitX=0.5;exitY=1;exitDx=0;exitDy=0;entryX=0.5;entryY=0;entryDx=0;entryDy=0;endArrow=none;endFill=0;" edge="1" parent="1" source="Bz5Knsb119byF3IW7ttu-46" target="Bz5Knsb119byF3IW7ttu-48">
          <mxGeometry relative="1" as="geometry" />
        </mxCell>
        <mxCell id="Bz5Knsb119byF3IW7ttu-50" value="" style="ellipse;whiteSpace=wrap;html=1;strokeColor=#000000;fillColor=#000000;" vertex="1" parent="1">
          <mxGeometry x="362.0909090909091" y="262.8461538461538" width="15.909090909090908" height="16.153846153846153" as="geometry" />
        </mxCell>
        <mxCell id="Bz5Knsb119byF3IW7ttu-51" style="rounded=0;orthogonalLoop=1;jettySize=auto;html=1;exitX=0.5;exitY=1;exitDx=0;exitDy=0;entryX=0.5;entryY=0;entryDx=0;entryDy=0;endArrow=none;endFill=0;" edge="1" parent="1" source="Bz5Knsb119byF3IW7ttu-48" target="Bz5Knsb119byF3IW7ttu-50">
          <mxGeometry relative="1" as="geometry" />
        </mxCell>
        <mxCell id="Bz5Knsb119byF3IW7ttu-52" style="edgeStyle=none;rounded=0;orthogonalLoop=1;jettySize=auto;html=1;exitX=1;exitY=0.5;exitDx=0;exitDy=0;entryX=0;entryY=0.5;entryDx=0;entryDy=0;endArrow=none;endFill=0;" edge="1" parent="1" source="Bz5Knsb119byF3IW7ttu-32" target="Bz5Knsb119byF3IW7ttu-45">
          <mxGeometry relative="1" as="geometry" />
        </mxCell>
        <mxCell id="Bz5Knsb119byF3IW7ttu-53" style="edgeStyle=none;rounded=0;orthogonalLoop=1;jettySize=auto;html=1;exitX=1;exitY=0.5;exitDx=0;exitDy=0;entryX=0;entryY=0.5;entryDx=0;entryDy=0;endArrow=none;endFill=0;" edge="1" parent="1" source="Bz5Knsb119byF3IW7ttu-34" target="Bz5Knsb119byF3IW7ttu-46">
          <mxGeometry relative="1" as="geometry" />
        </mxCell>
        <mxCell id="Bz5Knsb119byF3IW7ttu-54" style="edgeStyle=none;rounded=0;orthogonalLoop=1;jettySize=auto;html=1;exitX=1;exitY=0.5;exitDx=0;exitDy=0;entryX=0;entryY=0.5;entryDx=0;entryDy=0;endArrow=none;endFill=0;" edge="1" parent="1" source="Bz5Knsb119byF3IW7ttu-36" target="Bz5Knsb119byF3IW7ttu-48">
          <mxGeometry relative="1" as="geometry" />
        </mxCell>
        <mxCell id="Bz5Knsb119byF3IW7ttu-55" style="edgeStyle=none;rounded=0;orthogonalLoop=1;jettySize=auto;html=1;exitX=1;exitY=0.5;exitDx=0;exitDy=0;entryX=0;entryY=0.5;entryDx=0;entryDy=0;endArrow=none;endFill=0;" edge="1" parent="1" source="Bz5Knsb119byF3IW7ttu-37" target="Bz5Knsb119byF3IW7ttu-50">
          <mxGeometry relative="1" as="geometry" />
        </mxCell>
        <mxCell id="Bz5Knsb119byF3IW7ttu-78" style="edgeStyle=orthogonalEdgeStyle;rounded=0;orthogonalLoop=1;jettySize=auto;html=1;exitX=0;exitY=0.5;exitDx=0;exitDy=0;entryX=1;entryY=0.5;entryDx=0;entryDy=0;endArrow=none;endFill=0;curved=1;" edge="1" parent="1" source="Bz5Knsb119byF3IW7ttu-1" target="Bz5Knsb119byF3IW7ttu-45">
          <mxGeometry relative="1" as="geometry">
            <Array as="points">
              <mxPoint x="90" y="78" />
              <mxPoint x="90" y="40" />
              <mxPoint x="398" y="40" />
              <mxPoint x="398" y="78" />
            </Array>
          </mxGeometry>
        </mxCell>
        <mxCell id="Bz5Knsb119byF3IW7ttu-79" style="edgeStyle=orthogonalEdgeStyle;rounded=0;orthogonalLoop=1;jettySize=auto;html=1;exitX=0;exitY=0.5;exitDx=0;exitDy=0;entryX=1;entryY=0.5;entryDx=0;entryDy=0;endArrow=none;endFill=0;curved=1;" edge="1" parent="1">
          <mxGeometry relative="1" as="geometry">
            <mxPoint x="109.00000000000591" y="143.0769230769231" as="sourcePoint" />
            <mxPoint x="376.99999999999386" y="142.69230769230774" as="targetPoint" />
            <Array as="points">
              <mxPoint x="89" y="143" />
              <mxPoint x="89" y="105" />
              <mxPoint x="397" y="105" />
              <mxPoint x="397" y="143" />
            </Array>
          </mxGeometry>
        </mxCell>
        <mxCell id="Bz5Knsb119byF3IW7ttu-80" value="1,1" style="text;html=1;align=center;verticalAlign=middle;resizable=0;points=[];autosize=1;strokeColor=none;fillColor=none;" vertex="1" parent="1">
          <mxGeometry x="519" y="48" width="40" height="30" as="geometry" />
        </mxCell>
        <mxCell id="Bz5Knsb119byF3IW7ttu-81" value="1,2" style="text;html=1;align=center;verticalAlign=middle;resizable=0;points=[];autosize=1;strokeColor=none;fillColor=none;" vertex="1" parent="1">
          <mxGeometry x="648" y="48" width="40" height="30" as="geometry" />
        </mxCell>
        <mxCell id="Bz5Knsb119byF3IW7ttu-84" value="1,5" style="text;html=1;align=center;verticalAlign=middle;resizable=0;points=[];autosize=1;strokeColor=none;fillColor=none;" vertex="1" parent="1">
          <mxGeometry x="581" y="47" width="40" height="30" as="geometry" />
        </mxCell>
        <mxCell id="Bz5Knsb119byF3IW7ttu-85" value="2,1" style="text;html=1;align=center;verticalAlign=middle;resizable=0;points=[];autosize=1;strokeColor=none;fillColor=none;" vertex="1" parent="1">
          <mxGeometry x="519" y="178" width="40" height="30" as="geometry" />
        </mxCell>
        <mxCell id="Bz5Knsb119byF3IW7ttu-86" value="2,2" style="text;html=1;align=center;verticalAlign=middle;resizable=0;points=[];autosize=1;strokeColor=none;fillColor=none;" vertex="1" parent="1">
          <mxGeometry x="648" y="178" width="40" height="30" as="geometry" />
        </mxCell>
        <mxCell id="Bz5Knsb119byF3IW7ttu-89" value="2,5" style="text;html=1;align=center;verticalAlign=middle;resizable=0;points=[];autosize=1;strokeColor=none;fillColor=none;" vertex="1" parent="1">
          <mxGeometry x="581" y="177" width="40" height="30" as="geometry" />
        </mxCell>
        <mxCell id="Bz5Knsb119byF3IW7ttu-90" value="3,1" style="text;html=1;align=center;verticalAlign=middle;resizable=0;points=[];autosize=1;strokeColor=none;fillColor=none;" vertex="1" parent="1">
          <mxGeometry x="520" y="243" width="40" height="30" as="geometry" />
        </mxCell>
        <mxCell id="Bz5Knsb119byF3IW7ttu-91" value="3,2" style="text;html=1;align=center;verticalAlign=middle;resizable=0;points=[];autosize=1;strokeColor=none;fillColor=none;" vertex="1" parent="1">
          <mxGeometry x="649" y="243" width="40" height="30" as="geometry" />
        </mxCell>
        <mxCell id="Bz5Knsb119byF3IW7ttu-94" value="3,5" style="text;html=1;align=center;verticalAlign=middle;resizable=0;points=[];autosize=1;strokeColor=none;fillColor=none;" vertex="1" parent="1">
          <mxGeometry x="582" y="242" width="40" height="30" as="geometry" />
        </mxCell>
        <mxCell id="Bz5Knsb119byF3IW7ttu-96" value="4,2" style="text;html=1;align=center;verticalAlign=middle;resizable=0;points=[];autosize=1;strokeColor=none;fillColor=none;" vertex="1" parent="1">
          <mxGeometry x="650" y="113" width="40" height="30" as="geometry" />
        </mxCell>
        <mxCell id="Bz5Knsb119byF3IW7ttu-99" value="4,5" style="text;html=1;align=center;verticalAlign=middle;resizable=0;points=[];autosize=1;strokeColor=none;fillColor=none;" vertex="1" parent="1">
          <mxGeometry x="583" y="112" width="40" height="30" as="geometry" />
        </mxCell>
        <mxCell id="Bz5Knsb119byF3IW7ttu-189" style="edgeStyle=orthogonalEdgeStyle;curved=1;rounded=0;orthogonalLoop=1;jettySize=auto;html=1;exitX=0;exitY=0.5;exitDx=0;exitDy=0;entryX=0;entryY=0.5;entryDx=0;entryDy=0;dashed=1;strokeColor=#FF0000;endArrow=none;endFill=0;" edge="1" parent="1" source="Bz5Knsb119byF3IW7ttu-141" target="Bz5Knsb119byF3IW7ttu-144">
          <mxGeometry relative="1" as="geometry">
            <Array as="points">
              <mxPoint x="760" y="79" />
              <mxPoint x="760" y="208" />
            </Array>
          </mxGeometry>
        </mxCell>
        <mxCell id="Bz5Knsb119byF3IW7ttu-141" value="" style="ellipse;whiteSpace=wrap;html=1;strokeColor=#000000;fillColor=#000000;" vertex="1" parent="1">
          <mxGeometry x="794.0909090909091" y="70.61538461538461" width="15.909090909090908" height="16.153846153846153" as="geometry" />
        </mxCell>
        <mxCell id="Bz5Knsb119byF3IW7ttu-190" style="edgeStyle=orthogonalEdgeStyle;curved=1;rounded=0;orthogonalLoop=1;jettySize=auto;html=1;exitX=0;exitY=0.5;exitDx=0;exitDy=0;entryX=0;entryY=0.5;entryDx=0;entryDy=0;dashed=1;strokeColor=#FF0000;endArrow=none;endFill=0;" edge="1" parent="1" source="Bz5Knsb119byF3IW7ttu-142" target="Bz5Knsb119byF3IW7ttu-146">
          <mxGeometry relative="1" as="geometry" />
        </mxCell>
        <mxCell id="Bz5Knsb119byF3IW7ttu-142" value="" style="ellipse;whiteSpace=wrap;html=1;strokeColor=#000000;fillColor=#000000;" vertex="1" parent="1">
          <mxGeometry x="794.0909090909091" y="135.23076923076923" width="15.909090909090908" height="16.153846153846153" as="geometry" />
        </mxCell>
        <mxCell id="Bz5Knsb119byF3IW7ttu-143" style="edgeStyle=orthogonalEdgeStyle;rounded=0;orthogonalLoop=1;jettySize=auto;html=1;exitX=0.5;exitY=1;exitDx=0;exitDy=0;entryX=0.5;entryY=0;entryDx=0;entryDy=0;endArrow=none;endFill=0;" edge="1" parent="1" source="Bz5Knsb119byF3IW7ttu-141" target="Bz5Knsb119byF3IW7ttu-142">
          <mxGeometry relative="1" as="geometry" />
        </mxCell>
        <mxCell id="Bz5Knsb119byF3IW7ttu-144" value="" style="ellipse;whiteSpace=wrap;html=1;strokeColor=#000000;fillColor=#000000;" vertex="1" parent="1">
          <mxGeometry x="794.0909090909091" y="199.84615384615384" width="15.909090909090908" height="16.153846153846153" as="geometry" />
        </mxCell>
        <mxCell id="Bz5Knsb119byF3IW7ttu-145" style="edgeStyle=orthogonalEdgeStyle;rounded=0;orthogonalLoop=1;jettySize=auto;html=1;exitX=0.5;exitY=1;exitDx=0;exitDy=0;entryX=0.5;entryY=0;entryDx=0;entryDy=0;endArrow=none;endFill=0;" edge="1" parent="1" source="Bz5Knsb119byF3IW7ttu-142" target="Bz5Knsb119byF3IW7ttu-144">
          <mxGeometry relative="1" as="geometry" />
        </mxCell>
        <mxCell id="Bz5Knsb119byF3IW7ttu-146" value="" style="ellipse;whiteSpace=wrap;html=1;strokeColor=#000000;fillColor=#000000;" vertex="1" parent="1">
          <mxGeometry x="794.0909090909091" y="263.8461538461538" width="15.909090909090908" height="16.153846153846153" as="geometry" />
        </mxCell>
        <mxCell id="Bz5Knsb119byF3IW7ttu-147" style="rounded=0;orthogonalLoop=1;jettySize=auto;html=1;exitX=0.5;exitY=1;exitDx=0;exitDy=0;entryX=0.5;entryY=0;entryDx=0;entryDy=0;endArrow=none;endFill=0;" edge="1" parent="1" source="Bz5Knsb119byF3IW7ttu-144" target="Bz5Knsb119byF3IW7ttu-146">
          <mxGeometry relative="1" as="geometry" />
        </mxCell>
        <mxCell id="Bz5Knsb119byF3IW7ttu-148" style="edgeStyle=none;rounded=0;orthogonalLoop=1;jettySize=auto;html=1;exitX=1;exitY=0.5;exitDx=0;exitDy=0;entryX=0;entryY=0.5;entryDx=0;entryDy=0;endArrow=none;endFill=0;" edge="1" parent="1" source="Bz5Knsb119byF3IW7ttu-130" target="Bz5Knsb119byF3IW7ttu-141">
          <mxGeometry relative="1" as="geometry" />
        </mxCell>
        <mxCell id="Bz5Knsb119byF3IW7ttu-149" style="edgeStyle=none;rounded=0;orthogonalLoop=1;jettySize=auto;html=1;exitX=1;exitY=0.5;exitDx=0;exitDy=0;entryX=0;entryY=0.5;entryDx=0;entryDy=0;endArrow=none;endFill=0;" edge="1" parent="1" source="Bz5Knsb119byF3IW7ttu-132" target="Bz5Knsb119byF3IW7ttu-142">
          <mxGeometry relative="1" as="geometry" />
        </mxCell>
        <mxCell id="Bz5Knsb119byF3IW7ttu-150" style="edgeStyle=none;rounded=0;orthogonalLoop=1;jettySize=auto;html=1;exitX=1;exitY=0.5;exitDx=0;exitDy=0;entryX=0;entryY=0.5;entryDx=0;entryDy=0;endArrow=none;endFill=0;" edge="1" parent="1" source="Bz5Knsb119byF3IW7ttu-135" target="Bz5Knsb119byF3IW7ttu-144">
          <mxGeometry relative="1" as="geometry" />
        </mxCell>
        <mxCell id="Bz5Knsb119byF3IW7ttu-151" style="edgeStyle=none;rounded=0;orthogonalLoop=1;jettySize=auto;html=1;exitX=1;exitY=0.5;exitDx=0;exitDy=0;entryX=0;entryY=0.5;entryDx=0;entryDy=0;endArrow=none;endFill=0;" edge="1" parent="1" source="Bz5Knsb119byF3IW7ttu-138" target="Bz5Knsb119byF3IW7ttu-146">
          <mxGeometry relative="1" as="geometry" />
        </mxCell>
        <mxCell id="Bz5Knsb119byF3IW7ttu-154" style="edgeStyle=orthogonalEdgeStyle;rounded=0;orthogonalLoop=1;jettySize=auto;html=1;exitX=0;exitY=0.5;exitDx=0;exitDy=0;entryX=1;entryY=0.5;entryDx=0;entryDy=0;endArrow=none;endFill=0;curved=1;" edge="1" parent="1">
          <mxGeometry relative="1" as="geometry">
            <mxPoint x="108.00000000000591" y="207.0769230769231" as="sourcePoint" />
            <mxPoint x="375.99999999999386" y="206.69230769230774" as="targetPoint" />
            <Array as="points">
              <mxPoint x="88" y="207" />
              <mxPoint x="88" y="169" />
              <mxPoint x="396" y="169" />
              <mxPoint x="396" y="207" />
            </Array>
          </mxGeometry>
        </mxCell>
        <mxCell id="Bz5Knsb119byF3IW7ttu-155" style="edgeStyle=orthogonalEdgeStyle;rounded=0;orthogonalLoop=1;jettySize=auto;html=1;exitX=0;exitY=0.5;exitDx=0;exitDy=0;entryX=1;entryY=0.5;entryDx=0;entryDy=0;endArrow=none;endFill=0;curved=1;" edge="1" parent="1">
          <mxGeometry relative="1" as="geometry">
            <mxPoint x="109.00000000000591" y="270.0769230769231" as="sourcePoint" />
            <mxPoint x="376.99999999999386" y="269.69230769230774" as="targetPoint" />
            <Array as="points">
              <mxPoint x="89" y="270" />
              <mxPoint x="89" y="232" />
              <mxPoint x="397" y="232" />
              <mxPoint x="397" y="270" />
            </Array>
          </mxGeometry>
        </mxCell>
        <mxCell id="Bz5Knsb119byF3IW7ttu-157" style="edgeStyle=orthogonalEdgeStyle;curved=1;rounded=0;orthogonalLoop=1;jettySize=auto;html=1;exitX=0.5;exitY=0;exitDx=0;exitDy=0;entryX=0.5;entryY=1;entryDx=0;entryDy=0;endArrow=none;endFill=0;" edge="1" parent="1">
          <mxGeometry relative="1" as="geometry">
            <mxPoint x="184.9545454545455" y="71" as="sourcePoint" />
            <mxPoint x="184.9545454545455" y="279.3846153846155" as="targetPoint" />
            <Array as="points">
              <mxPoint x="185" y="51" />
              <mxPoint x="213" y="51" />
              <mxPoint x="213" y="299" />
              <mxPoint x="185" y="299" />
            </Array>
          </mxGeometry>
        </mxCell>
        <mxCell id="Bz5Knsb119byF3IW7ttu-158" style="edgeStyle=orthogonalEdgeStyle;curved=1;rounded=0;orthogonalLoop=1;jettySize=auto;html=1;exitX=0.5;exitY=0;exitDx=0;exitDy=0;entryX=0.5;entryY=1;entryDx=0;entryDy=0;endArrow=none;endFill=0;" edge="1" parent="1">
          <mxGeometry relative="1" as="geometry">
            <mxPoint x="248.9545454545455" y="69" as="sourcePoint" />
            <mxPoint x="248.9545454545455" y="277.3846153846155" as="targetPoint" />
            <Array as="points">
              <mxPoint x="249" y="49" />
              <mxPoint x="277" y="49" />
              <mxPoint x="277" y="297" />
              <mxPoint x="249" y="297" />
            </Array>
          </mxGeometry>
        </mxCell>
        <mxCell id="Bz5Knsb119byF3IW7ttu-159" style="edgeStyle=orthogonalEdgeStyle;curved=1;rounded=0;orthogonalLoop=1;jettySize=auto;html=1;exitX=0.5;exitY=0;exitDx=0;exitDy=0;entryX=0.5;entryY=1;entryDx=0;entryDy=0;endArrow=none;endFill=0;" edge="1" parent="1">
          <mxGeometry relative="1" as="geometry">
            <mxPoint x="311.9545454545455" y="70" as="sourcePoint" />
            <mxPoint x="311.9545454545455" y="278.3846153846155" as="targetPoint" />
            <Array as="points">
              <mxPoint x="312" y="50" />
              <mxPoint x="340" y="50" />
              <mxPoint x="340" y="298" />
              <mxPoint x="312" y="298" />
            </Array>
          </mxGeometry>
        </mxCell>
        <mxCell id="Bz5Knsb119byF3IW7ttu-160" style="edgeStyle=orthogonalEdgeStyle;curved=1;rounded=0;orthogonalLoop=1;jettySize=auto;html=1;exitX=0.5;exitY=0;exitDx=0;exitDy=0;entryX=0.5;entryY=1;entryDx=0;entryDy=0;endArrow=none;endFill=0;" edge="1" parent="1">
          <mxGeometry relative="1" as="geometry">
            <mxPoint x="370.9545454545455" y="69" as="sourcePoint" />
            <mxPoint x="370.9545454545455" y="277.3846153846155" as="targetPoint" />
            <Array as="points">
              <mxPoint x="371" y="49" />
              <mxPoint x="399" y="49" />
              <mxPoint x="399" y="297" />
              <mxPoint x="371" y="297" />
            </Array>
          </mxGeometry>
        </mxCell>
        <mxCell id="Bz5Knsb119byF3IW7ttu-164" value="2,3" style="text;html=1;align=center;verticalAlign=middle;resizable=0;points=[];autosize=1;strokeColor=none;fillColor=none;" vertex="1" parent="1">
          <mxGeometry x="769" y="177" width="40" height="30" as="geometry" />
        </mxCell>
        <mxCell id="Bz5Knsb119byF3IW7ttu-171" style="edgeStyle=orthogonalEdgeStyle;curved=1;rounded=0;orthogonalLoop=1;jettySize=auto;html=1;exitX=0.5;exitY=0;exitDx=0;exitDy=0;entryX=0.5;entryY=0;entryDx=0;entryDy=0;endArrow=none;endFill=0;dashed=1;strokeColor=#00CC00;" edge="1" parent="1" source="Bz5Knsb119byF3IW7ttu-101" target="Bz5Knsb119byF3IW7ttu-119">
          <mxGeometry relative="1" as="geometry" />
        </mxCell>
        <mxCell id="Bz5Knsb119byF3IW7ttu-181" style="edgeStyle=orthogonalEdgeStyle;curved=1;rounded=0;orthogonalLoop=1;jettySize=auto;html=1;exitX=0;exitY=0.5;exitDx=0;exitDy=0;entryX=0;entryY=0.5;entryDx=0;entryDy=0;dashed=1;strokeColor=#FF0000;endArrow=none;endFill=0;" edge="1" parent="1" source="Bz5Knsb119byF3IW7ttu-101" target="Bz5Knsb119byF3IW7ttu-104">
          <mxGeometry relative="1" as="geometry">
            <Array as="points">
              <mxPoint x="510" y="79" />
              <mxPoint x="510" y="208" />
            </Array>
          </mxGeometry>
        </mxCell>
        <mxCell id="Bz5Knsb119byF3IW7ttu-101" value="" style="ellipse;whiteSpace=wrap;html=1;strokeColor=#000000;fillColor=#000000;" vertex="1" parent="1">
          <mxGeometry x="542" y="71" width="15.909090909090908" height="16.153846153846153" as="geometry" />
        </mxCell>
        <mxCell id="Bz5Knsb119byF3IW7ttu-182" style="edgeStyle=orthogonalEdgeStyle;curved=1;rounded=0;orthogonalLoop=1;jettySize=auto;html=1;exitX=0;exitY=0.5;exitDx=0;exitDy=0;entryX=0;entryY=0.5;entryDx=0;entryDy=0;dashed=1;strokeColor=#FF0000;endArrow=none;endFill=0;" edge="1" parent="1" source="Bz5Knsb119byF3IW7ttu-102" target="Bz5Knsb119byF3IW7ttu-106">
          <mxGeometry relative="1" as="geometry">
            <Array as="points">
              <mxPoint x="520" y="144" />
              <mxPoint x="520" y="271" />
            </Array>
          </mxGeometry>
        </mxCell>
        <mxCell id="Bz5Knsb119byF3IW7ttu-191" style="edgeStyle=orthogonalEdgeStyle;curved=1;rounded=0;orthogonalLoop=1;jettySize=auto;html=1;exitX=0.5;exitY=0;exitDx=0;exitDy=0;entryX=0.5;entryY=0;entryDx=0;entryDy=0;dashed=1;strokeColor=#00CC00;endArrow=none;endFill=0;" edge="1" parent="1" source="Bz5Knsb119byF3IW7ttu-102" target="Bz5Knsb119byF3IW7ttu-121">
          <mxGeometry relative="1" as="geometry" />
        </mxCell>
        <mxCell id="Bz5Knsb119byF3IW7ttu-102" value="" style="ellipse;whiteSpace=wrap;html=1;strokeColor=#000000;fillColor=#000000;" vertex="1" parent="1">
          <mxGeometry x="542" y="135.6153846153846" width="15.909090909090908" height="16.153846153846153" as="geometry" />
        </mxCell>
        <mxCell id="Bz5Knsb119byF3IW7ttu-103" style="edgeStyle=orthogonalEdgeStyle;rounded=0;orthogonalLoop=1;jettySize=auto;html=1;exitX=0.5;exitY=1;exitDx=0;exitDy=0;entryX=0.5;entryY=0;entryDx=0;entryDy=0;endArrow=none;endFill=0;" edge="1" parent="1" source="Bz5Knsb119byF3IW7ttu-101" target="Bz5Knsb119byF3IW7ttu-102">
          <mxGeometry relative="1" as="geometry" />
        </mxCell>
        <mxCell id="Bz5Knsb119byF3IW7ttu-194" style="edgeStyle=orthogonalEdgeStyle;curved=1;rounded=0;orthogonalLoop=1;jettySize=auto;html=1;exitX=0.5;exitY=0;exitDx=0;exitDy=0;entryX=0.5;entryY=0;entryDx=0;entryDy=0;dashed=1;strokeColor=#00CC00;endArrow=none;endFill=0;" edge="1" parent="1" source="Bz5Knsb119byF3IW7ttu-104" target="Bz5Knsb119byF3IW7ttu-124">
          <mxGeometry relative="1" as="geometry" />
        </mxCell>
        <mxCell id="Bz5Knsb119byF3IW7ttu-104" value="" style="ellipse;whiteSpace=wrap;html=1;strokeColor=#000000;fillColor=#000000;" vertex="1" parent="1">
          <mxGeometry x="542" y="200.23076923076923" width="15.909090909090908" height="16.153846153846153" as="geometry" />
        </mxCell>
        <mxCell id="Bz5Knsb119byF3IW7ttu-105" style="edgeStyle=orthogonalEdgeStyle;rounded=0;orthogonalLoop=1;jettySize=auto;html=1;exitX=0.5;exitY=1;exitDx=0;exitDy=0;entryX=0.5;entryY=0;entryDx=0;entryDy=0;endArrow=none;endFill=0;" edge="1" parent="1" source="Bz5Knsb119byF3IW7ttu-102" target="Bz5Knsb119byF3IW7ttu-104">
          <mxGeometry relative="1" as="geometry" />
        </mxCell>
        <mxCell id="Bz5Knsb119byF3IW7ttu-197" style="edgeStyle=orthogonalEdgeStyle;curved=1;rounded=0;orthogonalLoop=1;jettySize=auto;html=1;exitX=0.5;exitY=0;exitDx=0;exitDy=0;entryX=0.5;entryY=0;entryDx=0;entryDy=0;dashed=1;strokeColor=#00CC00;endArrow=none;endFill=0;" edge="1" parent="1" source="Bz5Knsb119byF3IW7ttu-106" target="Bz5Knsb119byF3IW7ttu-127">
          <mxGeometry relative="1" as="geometry" />
        </mxCell>
        <mxCell id="Bz5Knsb119byF3IW7ttu-106" value="" style="ellipse;whiteSpace=wrap;html=1;strokeColor=#000000;fillColor=#000000;" vertex="1" parent="1">
          <mxGeometry x="542" y="263.2307692307692" width="15.909090909090908" height="16.153846153846153" as="geometry" />
        </mxCell>
        <mxCell id="Bz5Knsb119byF3IW7ttu-107" style="rounded=0;orthogonalLoop=1;jettySize=auto;html=1;exitX=0.5;exitY=1;exitDx=0;exitDy=0;endArrow=none;endFill=0;entryX=0.5;entryY=0;entryDx=0;entryDy=0;" edge="1" parent="1" source="Bz5Knsb119byF3IW7ttu-104" target="Bz5Knsb119byF3IW7ttu-106">
          <mxGeometry relative="1" as="geometry">
            <mxPoint x="562" y="251" as="targetPoint" />
          </mxGeometry>
        </mxCell>
        <mxCell id="Bz5Knsb119byF3IW7ttu-183" style="edgeStyle=orthogonalEdgeStyle;curved=1;rounded=0;orthogonalLoop=1;jettySize=auto;html=1;exitX=0;exitY=0.5;exitDx=0;exitDy=0;entryX=0;entryY=0.5;entryDx=0;entryDy=0;dashed=1;strokeColor=#FF0000;endArrow=none;endFill=0;" edge="1" parent="1" source="Bz5Knsb119byF3IW7ttu-108" target="Bz5Knsb119byF3IW7ttu-113">
          <mxGeometry relative="1" as="geometry">
            <Array as="points">
              <mxPoint x="580" y="79" />
              <mxPoint x="580" y="208" />
            </Array>
          </mxGeometry>
        </mxCell>
        <mxCell id="Bz5Knsb119byF3IW7ttu-108" value="" style="ellipse;whiteSpace=wrap;html=1;strokeColor=#000000;fillColor=#000000;" vertex="1" parent="1">
          <mxGeometry x="608.8181818181818" y="71" width="15.909090909090908" height="16.153846153846153" as="geometry" />
        </mxCell>
        <mxCell id="Bz5Knsb119byF3IW7ttu-109" style="edgeStyle=orthogonalEdgeStyle;rounded=0;orthogonalLoop=1;jettySize=auto;html=1;exitX=1;exitY=0.5;exitDx=0;exitDy=0;entryX=0;entryY=0.5;entryDx=0;entryDy=0;endArrow=none;endFill=0;" edge="1" parent="1" source="Bz5Knsb119byF3IW7ttu-101" target="Bz5Knsb119byF3IW7ttu-108">
          <mxGeometry relative="1" as="geometry" />
        </mxCell>
        <mxCell id="Bz5Knsb119byF3IW7ttu-184" style="edgeStyle=orthogonalEdgeStyle;curved=1;rounded=0;orthogonalLoop=1;jettySize=auto;html=1;exitX=0;exitY=0.5;exitDx=0;exitDy=0;entryX=0;entryY=0.5;entryDx=0;entryDy=0;dashed=1;strokeColor=#FF0000;endArrow=none;endFill=0;" edge="1" parent="1" source="Bz5Knsb119byF3IW7ttu-110" target="Bz5Knsb119byF3IW7ttu-116">
          <mxGeometry relative="1" as="geometry" />
        </mxCell>
        <mxCell id="Bz5Knsb119byF3IW7ttu-192" style="edgeStyle=orthogonalEdgeStyle;curved=1;rounded=0;orthogonalLoop=1;jettySize=auto;html=1;exitX=0.5;exitY=0;exitDx=0;exitDy=0;entryX=0.5;entryY=0;entryDx=0;entryDy=0;dashed=1;strokeColor=#00CC00;endArrow=none;endFill=0;" edge="1" parent="1" source="Bz5Knsb119byF3IW7ttu-110" target="Bz5Knsb119byF3IW7ttu-132">
          <mxGeometry relative="1" as="geometry">
            <Array as="points">
              <mxPoint x="617" y="100" />
              <mxPoint x="744" y="100" />
            </Array>
          </mxGeometry>
        </mxCell>
        <mxCell id="Bz5Knsb119byF3IW7ttu-110" value="" style="ellipse;whiteSpace=wrap;html=1;strokeColor=#000000;fillColor=#000000;" vertex="1" parent="1">
          <mxGeometry x="608.8181818181818" y="135.6153846153846" width="15.909090909090908" height="16.153846153846153" as="geometry" />
        </mxCell>
        <mxCell id="Bz5Knsb119byF3IW7ttu-111" style="edgeStyle=orthogonalEdgeStyle;rounded=0;orthogonalLoop=1;jettySize=auto;html=1;exitX=1;exitY=0.5;exitDx=0;exitDy=0;entryX=0;entryY=0.5;entryDx=0;entryDy=0;endArrow=none;endFill=0;" edge="1" parent="1" source="Bz5Knsb119byF3IW7ttu-102" target="Bz5Knsb119byF3IW7ttu-110">
          <mxGeometry relative="1" as="geometry" />
        </mxCell>
        <mxCell id="Bz5Knsb119byF3IW7ttu-112" style="edgeStyle=orthogonalEdgeStyle;rounded=0;orthogonalLoop=1;jettySize=auto;html=1;exitX=0.5;exitY=1;exitDx=0;exitDy=0;entryX=0.5;entryY=0;entryDx=0;entryDy=0;endArrow=none;endFill=0;" edge="1" parent="1" source="Bz5Knsb119byF3IW7ttu-108" target="Bz5Knsb119byF3IW7ttu-110">
          <mxGeometry relative="1" as="geometry" />
        </mxCell>
        <mxCell id="Bz5Knsb119byF3IW7ttu-195" style="edgeStyle=orthogonalEdgeStyle;curved=1;rounded=0;orthogonalLoop=1;jettySize=auto;html=1;exitX=0.5;exitY=0;exitDx=0;exitDy=0;dashed=1;strokeColor=#00CC00;endArrow=none;endFill=0;entryX=0.5;entryY=0;entryDx=0;entryDy=0;" edge="1" parent="1" source="Bz5Knsb119byF3IW7ttu-113" target="Bz5Knsb119byF3IW7ttu-135">
          <mxGeometry relative="1" as="geometry">
            <mxPoint x="730" y="230" as="targetPoint" />
            <Array as="points">
              <mxPoint x="617" y="170" />
              <mxPoint x="744" y="170" />
            </Array>
          </mxGeometry>
        </mxCell>
        <mxCell id="Bz5Knsb119byF3IW7ttu-113" value="" style="ellipse;whiteSpace=wrap;html=1;strokeColor=#000000;fillColor=#000000;" vertex="1" parent="1">
          <mxGeometry x="608.8181818181818" y="200.23076923076923" width="15.909090909090908" height="16.153846153846153" as="geometry" />
        </mxCell>
        <mxCell id="Bz5Knsb119byF3IW7ttu-114" style="edgeStyle=orthogonalEdgeStyle;rounded=0;orthogonalLoop=1;jettySize=auto;html=1;exitX=1;exitY=0.5;exitDx=0;exitDy=0;entryX=0;entryY=0.5;entryDx=0;entryDy=0;endArrow=none;endFill=0;" edge="1" parent="1" source="Bz5Knsb119byF3IW7ttu-104" target="Bz5Knsb119byF3IW7ttu-113">
          <mxGeometry relative="1" as="geometry" />
        </mxCell>
        <mxCell id="Bz5Knsb119byF3IW7ttu-115" style="edgeStyle=orthogonalEdgeStyle;rounded=0;orthogonalLoop=1;jettySize=auto;html=1;exitX=0.5;exitY=1;exitDx=0;exitDy=0;entryX=0.5;entryY=0;entryDx=0;entryDy=0;endArrow=none;endFill=0;" edge="1" parent="1" source="Bz5Knsb119byF3IW7ttu-110" target="Bz5Knsb119byF3IW7ttu-113">
          <mxGeometry relative="1" as="geometry" />
        </mxCell>
        <mxCell id="Bz5Knsb119byF3IW7ttu-198" style="edgeStyle=orthogonalEdgeStyle;curved=1;rounded=0;orthogonalLoop=1;jettySize=auto;html=1;exitX=0.5;exitY=0;exitDx=0;exitDy=0;entryX=0.5;entryY=0;entryDx=0;entryDy=0;dashed=1;strokeColor=#00CC00;endArrow=none;endFill=0;" edge="1" parent="1" source="Bz5Knsb119byF3IW7ttu-116" target="Bz5Knsb119byF3IW7ttu-138">
          <mxGeometry relative="1" as="geometry">
            <Array as="points">
              <mxPoint x="617" y="230" />
              <mxPoint x="744" y="230" />
            </Array>
          </mxGeometry>
        </mxCell>
        <mxCell id="Bz5Knsb119byF3IW7ttu-116" value="" style="ellipse;whiteSpace=wrap;html=1;strokeColor=#000000;fillColor=#000000;" vertex="1" parent="1">
          <mxGeometry x="608.8181818181818" y="263.2307692307692" width="15.909090909090908" height="16.153846153846153" as="geometry" />
        </mxCell>
        <mxCell id="Bz5Knsb119byF3IW7ttu-117" style="rounded=0;orthogonalLoop=1;jettySize=auto;html=1;exitX=1;exitY=0.5;exitDx=0;exitDy=0;endArrow=none;endFill=0;entryX=0;entryY=0.5;entryDx=0;entryDy=0;" edge="1" parent="1" source="Bz5Knsb119byF3IW7ttu-106" target="Bz5Knsb119byF3IW7ttu-116">
          <mxGeometry relative="1" as="geometry">
            <mxPoint x="592" y="241" as="targetPoint" />
          </mxGeometry>
        </mxCell>
        <mxCell id="Bz5Knsb119byF3IW7ttu-118" style="rounded=0;orthogonalLoop=1;jettySize=auto;html=1;entryX=0.5;entryY=0;entryDx=0;entryDy=0;endArrow=none;endFill=0;exitX=0.5;exitY=1;exitDx=0;exitDy=0;" edge="1" parent="1" source="Bz5Knsb119byF3IW7ttu-113" target="Bz5Knsb119byF3IW7ttu-116">
          <mxGeometry relative="1" as="geometry">
            <mxPoint x="602" y="231" as="sourcePoint" />
          </mxGeometry>
        </mxCell>
        <mxCell id="Bz5Knsb119byF3IW7ttu-173" style="edgeStyle=orthogonalEdgeStyle;curved=1;rounded=0;orthogonalLoop=1;jettySize=auto;html=1;exitX=0.5;exitY=0;exitDx=0;exitDy=0;entryX=0.5;entryY=0;entryDx=0;entryDy=0;dashed=1;endArrow=none;endFill=0;strokeColor=#00CC00;" edge="1" parent="1" source="Bz5Knsb119byF3IW7ttu-119" target="Bz5Knsb119byF3IW7ttu-141">
          <mxGeometry relative="1" as="geometry" />
        </mxCell>
        <mxCell id="Bz5Knsb119byF3IW7ttu-185" style="edgeStyle=orthogonalEdgeStyle;curved=1;rounded=0;orthogonalLoop=1;jettySize=auto;html=1;exitX=0;exitY=0.5;exitDx=0;exitDy=0;entryX=0;entryY=0.5;entryDx=0;entryDy=0;dashed=1;strokeColor=#FF0000;endArrow=none;endFill=0;" edge="1" parent="1" source="Bz5Knsb119byF3IW7ttu-119" target="Bz5Knsb119byF3IW7ttu-124">
          <mxGeometry relative="1" as="geometry">
            <Array as="points">
              <mxPoint x="640" y="79" />
              <mxPoint x="640" y="208" />
            </Array>
          </mxGeometry>
        </mxCell>
        <mxCell id="Bz5Knsb119byF3IW7ttu-119" value="" style="ellipse;whiteSpace=wrap;html=1;strokeColor=#000000;fillColor=#000000;" vertex="1" parent="1">
          <mxGeometry x="672.2727272727273" y="70.61538461538461" width="15.909090909090908" height="16.153846153846153" as="geometry" />
        </mxCell>
        <mxCell id="Bz5Knsb119byF3IW7ttu-120" style="edgeStyle=orthogonalEdgeStyle;rounded=0;orthogonalLoop=1;jettySize=auto;html=1;exitX=1;exitY=0.5;exitDx=0;exitDy=0;entryX=0;entryY=0.5;entryDx=0;entryDy=0;endArrow=none;endFill=0;" edge="1" parent="1" source="Bz5Knsb119byF3IW7ttu-108" target="Bz5Knsb119byF3IW7ttu-119">
          <mxGeometry relative="1" as="geometry" />
        </mxCell>
        <mxCell id="Bz5Knsb119byF3IW7ttu-186" style="edgeStyle=orthogonalEdgeStyle;curved=1;rounded=0;orthogonalLoop=1;jettySize=auto;html=1;exitX=0;exitY=0.5;exitDx=0;exitDy=0;entryX=0;entryY=0.5;entryDx=0;entryDy=0;dashed=1;strokeColor=#FF0000;endArrow=none;endFill=0;" edge="1" parent="1" source="Bz5Knsb119byF3IW7ttu-121" target="Bz5Knsb119byF3IW7ttu-127">
          <mxGeometry relative="1" as="geometry" />
        </mxCell>
        <mxCell id="Bz5Knsb119byF3IW7ttu-193" style="edgeStyle=orthogonalEdgeStyle;curved=1;rounded=0;orthogonalLoop=1;jettySize=auto;html=1;exitX=0.5;exitY=0;exitDx=0;exitDy=0;entryX=0.5;entryY=0;entryDx=0;entryDy=0;dashed=1;strokeColor=#00CC00;endArrow=none;endFill=0;" edge="1" parent="1" source="Bz5Knsb119byF3IW7ttu-121" target="Bz5Knsb119byF3IW7ttu-142">
          <mxGeometry relative="1" as="geometry" />
        </mxCell>
        <mxCell id="Bz5Knsb119byF3IW7ttu-121" value="" style="ellipse;whiteSpace=wrap;html=1;strokeColor=#000000;fillColor=#000000;" vertex="1" parent="1">
          <mxGeometry x="672.2727272727273" y="135.23076923076923" width="15.909090909090908" height="16.153846153846153" as="geometry" />
        </mxCell>
        <mxCell id="Bz5Knsb119byF3IW7ttu-122" style="edgeStyle=orthogonalEdgeStyle;rounded=0;orthogonalLoop=1;jettySize=auto;html=1;exitX=1;exitY=0.5;exitDx=0;exitDy=0;entryX=0;entryY=0.5;entryDx=0;entryDy=0;endArrow=none;endFill=0;" edge="1" parent="1" source="Bz5Knsb119byF3IW7ttu-110" target="Bz5Knsb119byF3IW7ttu-121">
          <mxGeometry relative="1" as="geometry" />
        </mxCell>
        <mxCell id="Bz5Knsb119byF3IW7ttu-123" style="edgeStyle=orthogonalEdgeStyle;rounded=0;orthogonalLoop=1;jettySize=auto;html=1;exitX=0.5;exitY=1;exitDx=0;exitDy=0;entryX=0.5;entryY=0;entryDx=0;entryDy=0;endArrow=none;endFill=0;" edge="1" parent="1" source="Bz5Knsb119byF3IW7ttu-119" target="Bz5Knsb119byF3IW7ttu-121">
          <mxGeometry relative="1" as="geometry" />
        </mxCell>
        <mxCell id="Bz5Knsb119byF3IW7ttu-196" style="edgeStyle=orthogonalEdgeStyle;curved=1;rounded=0;orthogonalLoop=1;jettySize=auto;html=1;exitX=0.5;exitY=0;exitDx=0;exitDy=0;entryX=0.5;entryY=0;entryDx=0;entryDy=0;dashed=1;strokeColor=#00CC00;endArrow=none;endFill=0;" edge="1" parent="1" source="Bz5Knsb119byF3IW7ttu-124" target="Bz5Knsb119byF3IW7ttu-144">
          <mxGeometry relative="1" as="geometry" />
        </mxCell>
        <mxCell id="Bz5Knsb119byF3IW7ttu-124" value="" style="ellipse;whiteSpace=wrap;html=1;strokeColor=#000000;fillColor=#000000;" vertex="1" parent="1">
          <mxGeometry x="672.2727272727273" y="199.84615384615384" width="15.909090909090908" height="16.153846153846153" as="geometry" />
        </mxCell>
        <mxCell id="Bz5Knsb119byF3IW7ttu-125" style="edgeStyle=orthogonalEdgeStyle;rounded=0;orthogonalLoop=1;jettySize=auto;html=1;exitX=1;exitY=0.5;exitDx=0;exitDy=0;entryX=0;entryY=0.5;entryDx=0;entryDy=0;endArrow=none;endFill=0;" edge="1" parent="1" source="Bz5Knsb119byF3IW7ttu-113" target="Bz5Knsb119byF3IW7ttu-124">
          <mxGeometry relative="1" as="geometry" />
        </mxCell>
        <mxCell id="Bz5Knsb119byF3IW7ttu-126" style="edgeStyle=orthogonalEdgeStyle;rounded=0;orthogonalLoop=1;jettySize=auto;html=1;exitX=0.5;exitY=1;exitDx=0;exitDy=0;entryX=0.5;entryY=0;entryDx=0;entryDy=0;endArrow=none;endFill=0;" edge="1" parent="1" source="Bz5Knsb119byF3IW7ttu-121" target="Bz5Knsb119byF3IW7ttu-124">
          <mxGeometry relative="1" as="geometry" />
        </mxCell>
        <mxCell id="Bz5Knsb119byF3IW7ttu-199" style="edgeStyle=orthogonalEdgeStyle;curved=1;rounded=0;orthogonalLoop=1;jettySize=auto;html=1;exitX=0.5;exitY=0;exitDx=0;exitDy=0;entryX=0.5;entryY=0;entryDx=0;entryDy=0;dashed=1;strokeColor=#00CC00;endArrow=none;endFill=0;" edge="1" parent="1" source="Bz5Knsb119byF3IW7ttu-127" target="Bz5Knsb119byF3IW7ttu-146">
          <mxGeometry relative="1" as="geometry" />
        </mxCell>
        <mxCell id="Bz5Knsb119byF3IW7ttu-127" value="" style="ellipse;whiteSpace=wrap;html=1;strokeColor=#000000;fillColor=#000000;" vertex="1" parent="1">
          <mxGeometry x="672.2727272727273" y="262.8461538461538" width="15.909090909090908" height="16.153846153846153" as="geometry" />
        </mxCell>
        <mxCell id="Bz5Knsb119byF3IW7ttu-128" style="rounded=0;orthogonalLoop=1;jettySize=auto;html=1;exitX=1;exitY=0.5;exitDx=0;exitDy=0;entryX=0;entryY=0.5;entryDx=0;entryDy=0;endArrow=none;endFill=0;" edge="1" parent="1" source="Bz5Knsb119byF3IW7ttu-116" target="Bz5Knsb119byF3IW7ttu-127">
          <mxGeometry relative="1" as="geometry" />
        </mxCell>
        <mxCell id="Bz5Knsb119byF3IW7ttu-129" style="rounded=0;orthogonalLoop=1;jettySize=auto;html=1;exitX=0.5;exitY=1;exitDx=0;exitDy=0;entryX=0.5;entryY=0;entryDx=0;entryDy=0;endArrow=none;endFill=0;" edge="1" parent="1" source="Bz5Knsb119byF3IW7ttu-124" target="Bz5Knsb119byF3IW7ttu-127">
          <mxGeometry relative="1" as="geometry" />
        </mxCell>
        <mxCell id="Bz5Knsb119byF3IW7ttu-174" style="edgeStyle=orthogonalEdgeStyle;curved=1;rounded=0;orthogonalLoop=1;jettySize=auto;html=1;exitX=0.5;exitY=0;exitDx=0;exitDy=0;entryX=0.5;entryY=0;entryDx=0;entryDy=0;dashed=1;endArrow=none;endFill=0;strokeColor=#00CC00;" edge="1" parent="1" source="Bz5Knsb119byF3IW7ttu-130" target="Bz5Knsb119byF3IW7ttu-108">
          <mxGeometry relative="1" as="geometry">
            <Array as="points">
              <mxPoint x="744" y="40" />
              <mxPoint x="617" y="40" />
            </Array>
          </mxGeometry>
        </mxCell>
        <mxCell id="Bz5Knsb119byF3IW7ttu-187" style="edgeStyle=orthogonalEdgeStyle;curved=1;rounded=0;orthogonalLoop=1;jettySize=auto;html=1;exitX=0;exitY=0.5;exitDx=0;exitDy=0;entryX=0;entryY=0.5;entryDx=0;entryDy=0;dashed=1;strokeColor=#FF0000;endArrow=none;endFill=0;" edge="1" parent="1" source="Bz5Knsb119byF3IW7ttu-130" target="Bz5Knsb119byF3IW7ttu-135">
          <mxGeometry relative="1" as="geometry">
            <Array as="points">
              <mxPoint x="700" y="79" />
              <mxPoint x="700" y="208" />
            </Array>
          </mxGeometry>
        </mxCell>
        <mxCell id="Bz5Knsb119byF3IW7ttu-130" value="" style="ellipse;whiteSpace=wrap;html=1;strokeColor=#000000;fillColor=#000000;" vertex="1" parent="1">
          <mxGeometry x="736.0909090909091" y="70.61538461538461" width="15.909090909090908" height="16.153846153846153" as="geometry" />
        </mxCell>
        <mxCell id="Bz5Knsb119byF3IW7ttu-131" style="edgeStyle=orthogonalEdgeStyle;rounded=0;orthogonalLoop=1;jettySize=auto;html=1;exitX=1;exitY=0.5;exitDx=0;exitDy=0;entryX=0;entryY=0.5;entryDx=0;entryDy=0;endArrow=none;endFill=0;" edge="1" parent="1" source="Bz5Knsb119byF3IW7ttu-119" target="Bz5Knsb119byF3IW7ttu-130">
          <mxGeometry relative="1" as="geometry" />
        </mxCell>
        <mxCell id="Bz5Knsb119byF3IW7ttu-188" style="edgeStyle=orthogonalEdgeStyle;curved=1;rounded=0;orthogonalLoop=1;jettySize=auto;html=1;exitX=0;exitY=0.5;exitDx=0;exitDy=0;dashed=1;strokeColor=#FF0000;endArrow=none;endFill=0;entryX=0;entryY=0.5;entryDx=0;entryDy=0;" edge="1" parent="1" source="Bz5Knsb119byF3IW7ttu-132" target="Bz5Knsb119byF3IW7ttu-138">
          <mxGeometry relative="1" as="geometry">
            <mxPoint x="720" y="290" as="targetPoint" />
          </mxGeometry>
        </mxCell>
        <mxCell id="Bz5Knsb119byF3IW7ttu-132" value="" style="ellipse;whiteSpace=wrap;html=1;strokeColor=#000000;fillColor=#000000;" vertex="1" parent="1">
          <mxGeometry x="736.0909090909091" y="135.23076923076923" width="15.909090909090908" height="16.153846153846153" as="geometry" />
        </mxCell>
        <mxCell id="Bz5Knsb119byF3IW7ttu-133" style="edgeStyle=orthogonalEdgeStyle;rounded=0;orthogonalLoop=1;jettySize=auto;html=1;exitX=1;exitY=0.5;exitDx=0;exitDy=0;entryX=0;entryY=0.5;entryDx=0;entryDy=0;endArrow=none;endFill=0;" edge="1" parent="1" source="Bz5Knsb119byF3IW7ttu-121" target="Bz5Knsb119byF3IW7ttu-132">
          <mxGeometry relative="1" as="geometry" />
        </mxCell>
        <mxCell id="Bz5Knsb119byF3IW7ttu-134" style="edgeStyle=orthogonalEdgeStyle;rounded=0;orthogonalLoop=1;jettySize=auto;html=1;exitX=0.5;exitY=1;exitDx=0;exitDy=0;entryX=0.5;entryY=0;entryDx=0;entryDy=0;endArrow=none;endFill=0;" edge="1" parent="1" source="Bz5Knsb119byF3IW7ttu-130" target="Bz5Knsb119byF3IW7ttu-132">
          <mxGeometry relative="1" as="geometry" />
        </mxCell>
        <mxCell id="Bz5Knsb119byF3IW7ttu-135" value="" style="ellipse;whiteSpace=wrap;html=1;strokeColor=#000000;fillColor=#000000;" vertex="1" parent="1">
          <mxGeometry x="736.0909090909091" y="199.84615384615384" width="15.909090909090908" height="16.153846153846153" as="geometry" />
        </mxCell>
        <mxCell id="Bz5Knsb119byF3IW7ttu-136" style="edgeStyle=orthogonalEdgeStyle;rounded=0;orthogonalLoop=1;jettySize=auto;html=1;exitX=1;exitY=0.5;exitDx=0;exitDy=0;entryX=0;entryY=0.5;entryDx=0;entryDy=0;endArrow=none;endFill=0;" edge="1" parent="1" source="Bz5Knsb119byF3IW7ttu-124" target="Bz5Knsb119byF3IW7ttu-135">
          <mxGeometry relative="1" as="geometry" />
        </mxCell>
        <mxCell id="Bz5Knsb119byF3IW7ttu-137" style="edgeStyle=orthogonalEdgeStyle;rounded=0;orthogonalLoop=1;jettySize=auto;html=1;exitX=0.5;exitY=1;exitDx=0;exitDy=0;entryX=0.5;entryY=0;entryDx=0;entryDy=0;endArrow=none;endFill=0;" edge="1" parent="1" source="Bz5Knsb119byF3IW7ttu-132" target="Bz5Knsb119byF3IW7ttu-135">
          <mxGeometry relative="1" as="geometry" />
        </mxCell>
        <mxCell id="Bz5Knsb119byF3IW7ttu-138" value="" style="ellipse;whiteSpace=wrap;html=1;strokeColor=#000000;fillColor=#000000;" vertex="1" parent="1">
          <mxGeometry x="736.0909090909091" y="263.8461538461538" width="15.909090909090908" height="16.153846153846153" as="geometry" />
        </mxCell>
        <mxCell id="Bz5Knsb119byF3IW7ttu-139" style="rounded=0;orthogonalLoop=1;jettySize=auto;html=1;exitX=1;exitY=0.5;exitDx=0;exitDy=0;entryX=0;entryY=0.5;entryDx=0;entryDy=0;endArrow=none;endFill=0;" edge="1" parent="1" source="Bz5Knsb119byF3IW7ttu-127" target="Bz5Knsb119byF3IW7ttu-138">
          <mxGeometry relative="1" as="geometry" />
        </mxCell>
        <mxCell id="Bz5Knsb119byF3IW7ttu-140" style="rounded=0;orthogonalLoop=1;jettySize=auto;html=1;exitX=0.5;exitY=1;exitDx=0;exitDy=0;entryX=0.5;entryY=0;entryDx=0;entryDy=0;endArrow=none;endFill=0;" edge="1" parent="1" source="Bz5Knsb119byF3IW7ttu-135" target="Bz5Knsb119byF3IW7ttu-138">
          <mxGeometry relative="1" as="geometry" />
        </mxCell>
        <mxCell id="Bz5Knsb119byF3IW7ttu-201" value="" style="shape=flexArrow;endArrow=classic;html=1;rounded=0;strokeColor=#000000;curved=1;fillColor=#000000;" edge="1" parent="1">
          <mxGeometry width="50" height="50" relative="1" as="geometry">
            <mxPoint x="420" y="160" as="sourcePoint" />
            <mxPoint x="490" y="160" as="targetPoint" />
          </mxGeometry>
        </mxCell>
      </root>
    </mxGraphModel>
  </diagram>
</mxfile>
